<?xml version="1.0" encoding="utf-8"?>
<!-- Generator: Adobe Illustrator 26.3.1, SVG Export Plug-In . SVG Version: 6.00 Build 0)  -->
<svg version="1.1" id="Layer_1" xmlns="http://www.w3.org/2000/svg" xmlns:xlink="http://www.w3.org/1999/xlink" x="0px" y="0px"
	 viewBox="0 0 1683.5 357.9" style="enable-background:new 0 0 1683.5 357.9;" xml:space="preserve">
<style type="text/css">
	.st0{fill:#00A54C;}
	.st1{fill:#008948;}
</style>
<g>
	<path d="M98.4,72.5c0,11.2-0.5,21.6,0.1,31.9c1.2,22.7,14.8,35,40.4,35.3c42.6,0.6,85.2,0.1,127.8,0.4c13.9,0.1,27.9,0.2,41.6,1.9
		c60.2,7.2,98.4,57.8,89.8,118.2c-8.1,57-47.2,96.3-104.7,98.4c-62.1,2.3-124.3,0.7-186.5-0.9c-15.8-0.4-32-5.8-47-11.7
		C13.2,327.5-3,285.1,0.5,240c30.2,0,60.4,0,91.2,0c0,3.2,0,6.4,0,9.5c0,23.4,11.4,35.7,34.9,36.2c27.7,0.6,55.3,0.2,83,0.2
		c20.1,0,40.3,0.1,60.4,0c29.4-0.1,45.8-27.3,32.2-53.7c-6.9-13.3-19.5-16-32.9-16c-41.9-0.1-83.9,0.4-125.8-0.2
		c-19.5-0.3-39.4-0.6-58.5-4.4c-44.5-8.9-78.1-52.9-78.1-97.5c0-32,0-71.1,0-114c15.9,0,194.2-0.3,265.1,0.2
		c15.7,0.1,31.8,3.2,46.8,7.8c39.3,12,62.7,42.9,65.6,83.8c0.5,7.3,0.1,14.6,0.1,22.2c-29.9,0-59.7,0-89.8,0
		c-0.1-1.3-0.3-2.6-0.3-3.9c-0.3-26.7-11.3-37.6-38.2-37.7c-33.2-0.1-66.4,0-99.6,0C137.4,72.5,118.1,72.5,98.4,72.5z"/>
	<path d="M804.6,303.9c0,17.7,0,34.9,0,54c-10.8,0-21.6,0.2-32.4,0c-20.7-0.4-41.7,1-62.1-1.8c-33.7-4.6-52.8-28.2-53.6-62.2
		c-0.4-16-0.4-32-0.4-48c-0.1-15.8,0-31.7,0-47.9c-49.3,0-98.4,0-149.4,0c18.3,8.1,18.7,23.1,18.6,38.4c-0.1,12.4,0.1,24.9,0.2,37.3
		c0.1,19.8,9.9,29.9,29.7,30.3c14.4,0.3,28.9,0,43.7,0c0,17.6,0,34.8,0,54c-10.7,0-21.5,0.2-32.3,0c-21.1-0.4-42.4,0.8-63.2-2
		c-32.2-4.3-51.9-28.6-52.4-61.1c-0.5-30.6-0.6-61.3-0.8-91.9c0-1.8,0-3.7,0-5.9c-12.1,0-23.7,0-35.7,0c0-18.2,0-35.9,0-54.1
		c11.7,0,23.4,0,35.5,0c0.8-18.5,1.7-36.5,2.5-54.8c24.4,0,48.1,0,72.2,0c0,17.7,0,35.5,0,53.7c44,0,87.4,0,131,0
		c0.8-17.9,1.6-35.7,2.4-53.7c24.6,0,48.3,0,72.6,0c0,18.2,0,36.1,0,54.6c24.9,0,49.3,0,74,0c0,17.4,0,34.4,0,53.1
		c-30.3,0-85.1,0-93.6,0c15.1,7.3,19.6,20.4,19.6,36.6c0.2,15.8,0.2,25.4,0.4,41.2c0.2,20,10.1,30.1,30.2,30.4
		C775.4,304.1,789.7,303.9,804.6,303.9z"/>
	<path d="M1538.9,0.1c0,15.6,0,30.9,0,46.4c-379.6,0-758.9,0-1138.8,0c-6.2-18-19.2-35.1-37-46.4C754.2,0.1,1148.7,0.1,1538.9,0.1z"
		/>
	<path d="M1090.9,358.1c-1.8,0-3.6,0-5.4,0c-65.2,0-130.4,0-195.6-0.1c-5.4,0-10.9-0.3-16.3-1.2c-28.5-4.8-43.7-21.7-44.9-50.7
		c-0.5-11.9-0.4-23.8,0.4-35.7c1.4-23.8,16.9-39.3,42.2-42.9c6.4-0.9,12.9-1.2,19.3-1.3c27.7-0.1,55.5,0.1,83.2-0.1
		c19-0.1,36.4,2.4,44.4,23.4c0.8-0.3,1.7-0.5,2.6-0.8c-1.3-13.9-1.8-28-4.4-41.6c-1.3-6.9-8.8-9.5-15.7-10.3
		c-4.4-0.5-8.8-0.4-13.2-0.5c-43.7-0.5-87.5-1-131.2-1.6c-2.5,0-5-0.4-7.8-0.6c0-17.1,0-33.9,0-51.5c1.5,0,3.1,0,4.7,0
		c54.5,0,108.9,0,163.4,0c14.6,0,28.9,1.9,42.2,8.4c21.9,10.8,31.7,29.7,32.1,53c0.8,50.7,0.4,101.4,0.4,152.1
		C1091.4,356.7,1091.2,357.1,1090.9,358.1z M1019.7,307.3c0-7.2,0-14,0-20.7c0-15.5-5.3-21-20.8-21c-24.5,0-49,0-73.5,0
		c-23.5,0-25.7,2.1-25.4,25.6c0.1,11.4,4.8,16.1,16.2,16.1c30.6,0.1,61.2,0,91.9,0C1011.7,307.3,1015.4,307.3,1019.7,307.3z"/>
	<path d="M1628.9,357.9c-30.1,0-59,0-88.3,0c-24.6-29-49.3-58.2-73.9-87.2c-10.3,0-20.3,0-30.7,0c0,29.1,0,58,0,87.1
		c-24.5,0-48.7,0-73.6,0c0-89.4,0-178.8,0-268.5c24.3,0,48.7,0,73.6,0c0,47.1,0,94,0,140c2.2,0.3,5.3,0.4,8.8,0.1
		c0.6-0.1,6.7-0.6,13-3.3c10.2-4.3,17.4-12.3,19.9-15.2c12.2-14,17.7-21.5,27.8-33.8c9.3-11.4,18.7-22.8,28-34.1
		c25.6,0,50.9,0,77.7,0c-28.6,32.7-56.4,64.4-84.2,96.1C1560.8,278.3,1594.5,317.7,1628.9,357.9z"/>
	<path d="M1122.2,142.9c22.6,0,44.3,0,66.5,0c2,14.5,4.1,29,6.1,43.5c0.4,0,0.7,0.1,1.1,0.1c1.2-4.1,2.2-8.3,3.6-12.3
		c6.5-19.4,20.2-30.6,40.4-31.1c33-0.8,66-0.2,99.4-0.2c0,17.7,0,35.3,0,53.9c-14.2,0.6-28.6,1.4-43,1.6
		c-21.1,0.3-42.2,0.2-63.3,0.2c-25.8,0.1-36.7,10.5-36.9,36.6c-0.3,39-0.1,78-0.1,117c0,1.8,0,3.7,0,5.7c-24.6,0-48.8,0-73.9,0
		C1122.2,286.2,1122.2,214.7,1122.2,142.9z"/>
	<path class="st0" d="M1637,117.2c0-23.5,0-46.6,0-70.4c-23.7,0-47.3,0-71.1,0c0-15.9,0-31.1,0-46.7c39.1,0,78.1,0,117.5,0
		c0,38.9,0,77.8,0,117.1C1668.2,117.2,1652.9,117.2,1637,117.2z"/>
	<path d="M1637,215.6c0-24.5,0-48.3,0-72.5c15.5,0,30.8,0,46.5,0c0,39.4,0,78.9,0,118.9c-34,0-67.9,0-102.2,0
		c-6.4-7.3-13.1-14.8-20.1-22.7c7-8,14-15.8,21-23.7C1600.4,215.6,1618.4,215.6,1637,215.6z"/>
	<path class="st1" d="M1637,117.2c0-23.5,0-46.6,0-70.4c15.5-15.6,31-31.1,46.5-46.7c0,38.9,0,77.8,0,117.1
		C1668.2,117.2,1652.9,117.2,1637,117.2z"/>
</g>
</svg>
