<svg width="68" height="254" viewBox="0 0 68 254" fill="none" xmlns="http://www.w3.org/2000/svg">
<rect width="68" height="254" fill="#a3abb2"/>
<path d="M19.0753 230.313C20.6319 230.313 22.0774 230.383 23.509 230.3C26.6641 230.133 28.3737 228.243 28.4154 224.684C28.4988 218.763 28.4293 212.842 28.471 206.922C28.4849 204.99 28.4988 203.044 28.735 201.14C29.7358 192.772 36.7687 187.463 45.1636 188.658C53.086 189.784 58.5483 195.219 58.8402 203.21C59.1599 211.842 58.9375 220.487 58.7151 229.132C58.6595 231.328 57.909 233.58 57.0889 235.665C54.5176 242.155 48.6245 244.407 42.356 243.921C42.356 239.723 42.356 235.526 42.356 231.245C42.8008 231.245 43.2456 231.245 43.6764 231.245C46.9288 231.245 48.6384 229.66 48.7079 226.394C48.7913 222.544 48.7357 218.708 48.7357 214.858C48.7357 212.064 48.7496 209.257 48.7357 206.463C48.7218 202.377 44.9412 200.097 41.2719 201.987C39.4234 202.946 39.0481 204.698 39.0481 206.56C39.0342 212.384 39.1037 218.221 39.0203 224.045C38.9786 226.755 38.9369 229.521 38.4087 232.176C37.1717 238.361 31.0562 243.031 24.8572 243.031C20.4096 243.031 14.9751 243.031 9.01241 243.031C9.01241 240.821 8.97071 216.039 9.0402 206.185C9.0541 204.003 9.48497 201.765 10.1243 199.68C11.7922 194.218 16.087 190.965 21.7717 190.562C22.7863 190.493 23.8009 190.549 24.8572 190.549C24.8572 194.704 24.8572 198.846 24.8572 203.03C24.6765 203.044 24.4959 203.071 24.3152 203.071C20.6041 203.113 19.0892 204.642 19.0753 208.381C19.0614 212.995 19.0753 217.61 19.0753 222.224C19.0753 224.893 19.0753 227.575 19.0753 230.313Z" fill="black"/>
<path d="M51.2359 132.16C53.6961 132.16 56.0867 132.16 58.7414 132.16C58.7414 133.661 58.7692 135.162 58.7414 136.663C58.6858 139.54 58.8804 142.459 58.4912 145.294C57.8519 149.978 54.5717 152.633 49.846 152.744C47.6222 152.799 45.3984 152.799 43.1745 152.799C40.9785 152.813 38.7686 152.799 36.5169 152.799C36.5169 159.652 36.5169 166.476 36.5169 173.565C37.6427 171.021 39.7276 170.965 41.8541 170.979C43.5776 170.993 45.315 170.965 47.0385 170.952C49.7905 170.938 51.1942 169.576 51.2498 166.824C51.2915 164.822 51.2498 162.807 51.2498 160.75C53.6961 160.75 56.0867 160.75 58.7553 160.75C58.7553 162.237 58.7831 163.738 58.7553 165.239C58.6997 168.172 58.8665 171.132 58.4773 174.023C57.8796 178.499 54.5022 181.237 49.985 181.306C45.7319 181.376 41.465 181.39 37.2119 181.417C36.9617 181.417 36.6976 181.417 36.3918 181.417C36.3918 183.099 36.3918 184.712 36.3918 186.379C33.8622 186.379 31.4021 186.379 28.8725 186.379C28.8725 184.753 28.8725 183.127 28.8725 181.445C26.3012 181.334 23.7994 181.209 21.2559 181.098C21.2559 177.706 21.2559 174.412 21.2559 171.063C23.716 171.063 26.19 171.063 28.7196 171.063C28.7196 164.947 28.7196 158.915 28.7196 152.855C26.2317 152.744 23.7577 152.633 21.2559 152.522C21.2559 149.102 21.2559 145.808 21.2559 142.431C23.7855 142.431 26.2734 142.431 28.8447 142.431C28.8447 138.97 28.8447 135.579 28.8447 132.146C31.2631 132.146 33.6259 132.146 36.2251 132.146C36.2251 136.357 36.2251 143.974 36.2251 145.155C37.2397 143.056 39.0604 142.431 41.3121 142.431C43.5081 142.403 44.8424 142.403 47.0385 142.375C49.8182 142.347 51.222 140.971 51.2637 138.178C51.2637 136.218 51.2359 134.23 51.2359 132.16Z" fill="black"/>
<path d="M9.01221 30.0964C11.1804 30.0964 13.307 30.0964 15.4613 30.0964C15.4613 82.8569 15.4613 135.576 15.4613 188.378C12.9595 189.24 10.5828 191.046 9.01221 193.521C9.01221 139.162 9.01221 84.3302 9.01221 30.0964Z" fill="black"/>
<path d="M58.7706 92.365C58.7706 92.6152 58.7706 92.8654 58.7706 93.1156C58.7706 102.178 58.7706 111.24 58.7567 120.302C58.7567 121.052 58.715 121.817 58.59 122.567C57.9228 126.529 55.5739 128.641 51.5432 128.808C49.8892 128.878 48.2352 128.864 46.5812 128.753C43.2733 128.558 41.1189 126.404 40.6186 122.887C40.4935 121.998 40.4518 121.094 40.4379 120.205C40.424 116.355 40.4518 112.491 40.424 108.641C40.4101 106 40.7576 103.581 43.6764 102.47C43.6347 102.358 43.6069 102.233 43.5652 102.108C41.6332 102.289 39.6735 102.358 37.7832 102.72C36.8242 102.9 36.4628 103.943 36.3516 104.902C36.2821 105.513 36.296 106.125 36.2821 106.737C36.2126 112.81 36.1431 118.898 36.0597 124.972C36.0597 125.319 36.0041 125.667 35.9763 126.056C33.5996 126.056 31.2646 126.056 28.8184 126.056C28.8184 125.848 28.8184 125.625 28.8184 125.403C28.8184 117.828 28.8184 110.267 28.8184 102.692C28.8184 100.663 29.0824 98.6751 29.9859 96.8266C31.487 93.7827 34.1139 92.4206 37.3523 92.365C44.3991 92.2538 51.4459 92.3094 58.4927 92.3094C58.5761 92.2955 58.6317 92.3233 58.7706 92.365ZM51.71 102.261C50.7092 102.261 49.7641 102.261 48.8329 102.261C46.6785 102.261 45.9141 102.998 45.9141 105.152C45.9141 108.557 45.9141 111.963 45.9141 115.368C45.9141 118.634 46.206 118.94 49.4722 118.898C51.0567 118.884 51.71 118.231 51.71 116.647C51.7239 112.393 51.71 108.14 51.71 103.873C51.71 103.373 51.71 102.859 51.71 102.261Z" fill="black"/>
<path d="M58.7408 17.5882C58.7408 21.7717 58.7408 25.7886 58.7408 29.8609C54.7101 33.2801 50.6516 36.7131 46.6209 40.1323C46.6209 41.5639 46.6209 42.9538 46.6209 44.3993C50.6655 44.3993 54.6823 44.3993 58.7269 44.3993C58.7269 47.8045 58.7269 51.1681 58.7269 54.6289C46.3013 54.6289 33.8756 54.6289 21.4082 54.6289C21.4082 51.2515 21.4082 47.8601 21.4082 44.3993C27.9546 44.3993 34.4732 44.3993 40.8668 44.3993C40.9085 44.0935 40.9224 43.6626 40.8807 43.1762C40.8668 43.0928 40.7973 42.2449 40.422 41.3693C39.8243 39.9516 38.7124 38.9509 38.3093 38.6034C36.3635 36.9077 35.3211 36.1433 33.6115 34.7395C32.027 33.4469 30.4425 32.1404 28.8719 30.8478C28.8719 27.2896 28.8719 23.7732 28.8719 20.0483C33.4169 24.0234 37.8229 27.8873 42.2289 31.7512C47.6773 27.0534 53.1534 22.3694 58.7408 17.5882Z" fill="black"/>
<path d="M28.8601 88.0164C28.8601 84.8752 28.8601 81.8591 28.8601 78.7736C30.8754 78.4956 32.8908 78.2037 34.9062 77.9257C34.9062 77.8701 34.9201 77.8284 34.9201 77.7728C34.3502 77.606 33.7664 77.4671 33.2105 77.2725C30.5141 76.369 28.9574 74.4649 28.8879 71.6573C28.7767 67.0706 28.8601 62.484 28.8601 57.8417C31.3202 57.8417 33.7664 57.8417 36.3516 57.8417C36.435 59.8154 36.5462 61.8168 36.574 63.8183C36.6157 66.7509 36.6018 69.6836 36.6018 72.6163C36.6157 76.2022 38.0612 77.7172 41.6889 77.745C47.1094 77.7867 52.53 77.7589 57.9506 77.7589C58.2008 77.7589 58.4649 77.7589 58.7429 77.7589C58.7429 81.1781 58.7429 84.5416 58.7429 88.0303C48.7773 88.0164 38.8396 88.0164 28.8601 88.0164Z" fill="black"/>
<path d="M25.2879 16.463C22.0216 16.463 18.811 16.463 15.503 16.463C15.503 19.7571 15.503 23.0373 15.503 26.3452C13.2931 26.3452 11.1804 26.3452 9.01221 26.3452C9.01221 20.9107 9.01221 15.4901 9.01221 10.0139C14.4189 10.0139 19.8256 10.0139 25.2879 10.0139C25.2879 12.1266 25.2879 14.2531 25.2879 16.463Z" fill="#00A54C"/>
<path d="M38.9649 16.4626C35.5597 16.4626 32.2517 16.4626 28.8882 16.4626C28.8882 14.3083 28.8882 12.1817 28.8882 9.9996C34.3644 9.9996 39.8545 9.9996 45.4141 9.9996C45.4141 14.7252 45.4141 19.437 45.4141 24.2043C44.3994 25.0939 43.357 26.0251 42.259 26.998C41.1471 26.0251 40.063 25.0522 38.9649 24.0793C38.9649 21.5497 38.9649 19.0478 38.9649 16.4626Z" fill="black"/>
<path d="M25.2879 16.4639C22.0216 16.4639 18.811 16.4639 15.503 16.4639C13.3348 14.3095 11.1804 12.1552 9.01221 10.0008C14.4189 10.0008 19.8256 10.0008 25.2879 10.0008C25.2879 12.1274 25.2879 14.2539 25.2879 16.4639Z" fill="#008948"/>
</svg>
