<svg width="254" height="68" viewBox="0 0 254 68" fill="none" xmlns="http://www.w3.org/2000/svg">
<rect x="254" width="68" height="254" transform="rotate(90 254 0)" fill="#D9D9D9"/>
<path d="M23.6865 19.0753C23.6865 20.6319 23.617 22.0774 23.7004 23.509C23.8672 26.6641 25.7575 28.3737 29.3156 28.4154C35.2366 28.4988 41.1575 28.4293 47.0785 28.471C49.0104 28.4849 50.9563 28.4988 52.8605 28.735C61.2276 29.7358 66.537 36.7687 65.3417 45.1636C64.2159 53.086 58.7814 58.5483 50.7895 58.8402C42.1583 59.1599 33.5131 58.9375 24.8679 58.7151C22.6719 58.6595 20.4203 57.909 18.3354 57.0889C11.8446 54.5176 9.59297 48.6245 10.0794 42.356C14.2769 42.356 18.4744 42.356 22.7553 42.356C22.7553 42.8008 22.7553 43.2456 22.7553 43.6764C22.7553 46.9288 24.3398 48.6384 27.606 48.7079C31.456 48.7913 35.2922 48.7357 39.1422 48.7357C41.9359 48.7357 44.7435 48.7496 47.5372 48.7357C51.6235 48.7218 53.9029 44.9412 52.0126 41.2719C51.0536 39.4234 49.3023 39.0481 47.4399 39.0481C41.6162 39.0342 35.7786 39.1037 29.955 39.0203C27.2447 38.9786 24.4788 38.9369 21.8241 38.4087C15.639 37.1717 10.969 31.0562 10.969 24.8572C10.969 20.4096 10.969 14.9751 10.969 9.01241C13.1789 9.01241 37.9608 8.97071 47.8151 9.0402C49.9973 9.0541 52.235 9.48497 54.3199 10.1243C59.7821 11.7922 63.0345 16.087 63.4376 21.7717C63.5071 22.7863 63.4515 23.8009 63.4515 24.8572C59.2957 24.8572 55.1538 24.8572 50.9702 24.8572C50.9563 24.6765 50.9285 24.4959 50.9285 24.3152C50.8868 20.6041 49.3579 19.0892 45.6191 19.0753C41.0046 19.0614 36.3902 19.0753 31.7757 19.0753C29.1071 19.0753 26.4246 19.0753 23.6865 19.0753Z" fill="black"/>
<path d="M121.84 51.2359C121.84 53.6961 121.84 56.0867 121.84 58.7414C120.339 58.7414 118.838 58.7692 117.337 58.7414C114.46 58.6858 111.541 58.8804 108.706 58.4912C104.022 57.8519 101.367 54.5717 101.256 49.846C101.201 47.6222 101.201 45.3984 101.201 43.1745C101.187 40.9785 101.201 38.7686 101.201 36.5169C94.3483 36.5169 87.5239 36.5169 80.4355 36.5169C82.979 37.6427 83.0346 39.7276 83.0207 41.8541C83.0068 43.5776 83.0346 45.315 83.0485 47.0385C83.0624 49.7905 84.4245 51.1942 87.1765 51.2498C89.1779 51.2915 91.1933 51.2498 93.2503 51.2498C93.2503 53.6961 93.2503 56.0867 93.2503 58.7553C91.7631 58.7553 90.262 58.7831 88.7609 58.7553C85.8283 58.6997 82.8678 58.8665 79.9768 58.4773C75.5013 57.8796 72.7632 54.5022 72.6937 49.985C72.6242 45.7319 72.6103 41.465 72.5825 37.2119C72.5825 36.9617 72.5825 36.6976 72.5825 36.3918C70.9008 36.3918 69.2885 36.3918 67.6206 36.3918C67.6206 33.8622 67.6206 31.4021 67.6206 28.8725C69.2468 28.8725 70.873 28.8725 72.5547 28.8725C72.6659 26.3012 72.791 23.7994 72.9022 21.2559C76.2936 21.2559 79.5876 21.2559 82.9373 21.2559C82.9373 23.716 82.9373 26.19 82.9373 28.7196C89.0528 28.7196 95.085 28.7196 101.145 28.7196C101.256 26.2317 101.367 23.7577 101.478 21.2559C104.898 21.2559 108.192 21.2559 111.569 21.2559C111.569 23.7855 111.569 26.2734 111.569 28.8447C115.03 28.8447 118.421 28.8447 121.854 28.8447C121.854 31.2631 121.854 33.6259 121.854 36.2251C117.643 36.2251 110.026 36.2251 108.845 36.2251C110.944 37.2397 111.569 39.0604 111.569 41.3121C111.597 43.5081 111.597 44.8424 111.625 47.0385C111.653 49.8182 113.029 51.222 115.822 51.2637C117.782 51.2637 119.77 51.2359 121.84 51.2359Z" fill="black"/>
<path d="M223.904 9.01221C223.904 11.1804 223.904 13.307 223.904 15.4613C171.143 15.4613 118.424 15.4613 65.6221 15.4613C64.7604 12.9595 62.9535 10.5828 60.4795 9.01221C114.838 9.01221 169.67 9.01221 223.904 9.01221Z" fill="black"/>
<path d="M161.635 58.7706C161.385 58.7706 161.135 58.7706 160.884 58.7706C151.822 58.7706 142.76 58.7706 133.698 58.7567C132.948 58.7567 132.183 58.715 131.433 58.59C127.471 57.9228 125.359 55.5739 125.192 51.5432C125.122 49.8892 125.136 48.2352 125.247 46.5812C125.442 43.2733 127.596 41.1189 131.113 40.6186C132.002 40.4935 132.906 40.4518 133.795 40.4379C137.645 40.424 141.509 40.4518 145.359 40.424C148 40.4101 150.419 40.7576 151.53 43.6764C151.642 43.6347 151.767 43.6069 151.892 43.5652C151.711 41.6332 151.642 39.6735 151.28 37.7832C151.1 36.8242 150.057 36.4628 149.098 36.3516C148.487 36.2821 147.875 36.296 147.263 36.2821C141.19 36.2126 135.102 36.1431 129.028 36.0597C128.681 36.0597 128.333 36.0041 127.944 35.9763C127.944 33.5996 127.944 31.2646 127.944 28.8184C128.152 28.8184 128.375 28.8184 128.597 28.8184C136.172 28.8184 143.733 28.8184 151.308 28.8184C153.337 28.8184 155.325 29.0824 157.173 29.9859C160.217 31.487 161.579 34.1139 161.635 37.3523C161.746 44.3991 161.691 51.4459 161.691 58.4927C161.704 58.5761 161.677 58.6317 161.635 58.7706ZM151.739 51.71C151.739 50.7092 151.739 49.7641 151.739 48.8329C151.739 46.6785 151.002 45.9141 148.848 45.9141C145.443 45.9141 142.037 45.9141 138.632 45.9141C135.366 45.9141 135.06 46.206 135.102 49.4722C135.116 51.0567 135.769 51.71 137.353 51.71C141.607 51.7239 145.86 51.71 150.127 51.71C150.627 51.71 151.141 51.71 151.739 51.71Z" fill="black"/>
<path d="M236.412 58.7408C232.228 58.7408 228.211 58.7408 224.139 58.7408C220.72 54.7101 217.287 50.6516 213.868 46.6209C212.436 46.6209 211.046 46.6209 209.601 46.6209C209.601 50.6655 209.601 54.6823 209.601 58.7269C206.195 58.7269 202.832 58.7269 199.371 58.7269C199.371 46.3013 199.371 33.8756 199.371 21.4082C202.749 21.4082 206.14 21.4082 209.601 21.4082C209.601 27.9546 209.601 34.4732 209.601 40.8668C209.907 40.9085 210.337 40.9224 210.824 40.8807C210.907 40.8668 211.755 40.7973 212.631 40.422C214.048 39.8243 215.049 38.7124 215.397 38.3093C217.092 36.3635 217.857 35.3211 219.261 33.6115C220.553 32.027 221.86 30.4425 223.152 28.8719C226.71 28.8719 230.227 28.8719 233.952 28.8719C229.977 33.4169 226.113 37.8229 222.249 42.2289C226.947 47.6773 231.631 53.1534 236.412 58.7408Z" fill="black"/>
<path d="M165.984 28.8601C169.125 28.8601 172.141 28.8601 175.226 28.8601C175.504 30.8754 175.796 32.8908 176.074 34.9062C176.13 34.9062 176.172 34.9201 176.227 34.9201C176.394 34.3502 176.533 33.7664 176.728 33.2105C177.631 30.5141 179.535 28.9574 182.343 28.8879C186.929 28.7767 191.516 28.8601 196.158 28.8601C196.158 31.3202 196.158 33.7664 196.158 36.3516C194.185 36.435 192.183 36.5462 190.182 36.574C187.249 36.6157 184.316 36.6018 181.384 36.6018C177.798 36.6157 176.283 38.0612 176.255 41.6889C176.213 47.1094 176.241 52.53 176.241 57.9506C176.241 58.2008 176.241 58.4649 176.241 58.7429C172.822 58.7429 169.458 58.7429 165.97 58.7429C165.984 48.7773 165.984 38.8396 165.984 28.8601Z" fill="black"/>
<path d="M237.537 25.2879C237.537 22.0216 237.537 18.811 237.537 15.503C234.243 15.503 230.963 15.503 227.655 15.503C227.655 13.2931 227.655 11.1804 227.655 9.01221C233.089 9.01221 238.51 9.01221 243.986 9.01221C243.986 14.4189 243.986 19.8256 243.986 25.2879C241.873 25.2879 239.747 25.2879 237.537 25.2879Z" fill="#00A54C"/>
<path d="M237.537 38.9649C237.537 35.5597 237.537 32.2517 237.537 28.8882C239.692 28.8882 241.818 28.8882 244 28.8882C244 34.3644 244 39.8545 244 45.4141C239.275 45.4141 234.563 45.4141 229.796 45.4141C228.906 44.3994 227.975 43.357 227.002 42.259C227.975 41.1471 228.948 40.063 229.921 38.9649C232.45 38.9649 234.952 38.9649 237.537 38.9649Z" fill="black"/>
<path d="M237.536 25.2879C237.536 22.0216 237.536 18.811 237.536 15.503C239.69 13.3348 241.845 11.1804 243.999 9.01221C243.999 14.4189 243.999 19.8256 243.999 25.2879C241.873 25.2879 239.746 25.2879 237.536 25.2879Z" fill="#008948"/>
</svg>
