<svg width="361" height="174" viewBox="0 0 361 174" fill="none" xmlns="http://www.w3.org/2000/svg">
<path d="M0.42 154.74C0.28 107.68 0.14 60.6197 0 13.5597C0.56 13.2097 1.55 12.5897 2.82 11.8697C7.81 9.0097 24.55 0.189702 65.78 0.0097016C69.81 -0.0102984 74.04 -0.0302996 79.9 0.2897C89.96 0.8397 133.01 3.1797 136.09 17.6497C136.2 18.1697 136.32 18.9897 136.23 20.0497L136.09 33.8897C210.82 34.1297 285.55 34.3597 360.28 34.5997L360.42 173.8C264.04 173.71 167.67 173.61 71.29 173.52C70.44 173.49 69.16 173.45 67.62 173.38C49.47 172.59 40.39 172.2 30.63 169.71C14.03 165.48 4.45 158.04 2.11 156.16C1.39 155.58 0.81 155.09 0.42 154.75V154.74Z" fill="#231F20"/>
<path d="M134.49 17.2297C134.43 25.6397 134.36 34.0497 134.3 42.4497C118.6 47.3897 91.2899 53.6997 57.6899 49.5997C33.5999 46.6597 14.4899 39.3797 1.59991 33.2197L1.40991 17.5997L134.49 17.2197V17.2297Z" fill="#C6C3C1"/>
<path d="M67.61 34.18C104.398 34.18 134.22 26.9763 134.22 18.09C134.22 9.20374 104.398 2 67.61 2C30.8223 2 1 9.20374 1 18.09C1 26.9763 30.8223 34.18 67.61 34.18Z" fill="#F3EADE"/>
<path d="M66.7701 22.4198C77.9207 22.4198 86.9601 20.1991 86.9601 17.4598C86.9601 14.7204 77.9207 12.4998 66.7701 12.4998C55.6194 12.4998 46.5801 14.7204 46.5801 17.4598C46.5801 20.1991 55.6194 22.4198 66.7701 22.4198Z" fill="#BCA28B"/>
<path d="M54.7101 13.4897L66.9901 22.3797C63.5001 22.3297 60.3401 22.1397 57.5501 21.8897C57.5501 21.8897 53.1801 21.4997 48.9901 19.8197C48.9001 19.7797 48.5001 19.6198 48.0501 19.2998C47.6101 18.9898 46.5201 18.2297 46.5401 17.3197C46.5601 16.6297 47.2101 16.1597 47.9501 15.6297C48.6401 15.1297 49.4501 14.7197 51.0101 14.2697C51.9201 13.9997 53.1701 13.6997 54.7001 13.4897H54.7101Z" fill="#AD917B"/>
<path d="M1 19C1 19 3 34 63 36C115.5 36 341 36 341 36V172.5C341 172.5 166.5 173 74.5 173C4 173 1 152.5 0 131.5C3.59111e-05 120 1 19 1 19Z" fill="#F4F4F4"/>
<path d="M64.9567 42.4129C65.1707 42.4315 65.3525 42.4471 65.5 42.4597V166.527C65.3243 166.536 65.1005 166.546 64.8315 166.556C64.0902 166.584 63.0058 166.612 61.6375 166.613C58.9006 166.616 55.0297 166.512 50.4985 166.083C41.4299 165.225 29.7467 163.071 19.2205 157.899C6.38067 151.59 0.498966 140.3 0.5 131C0.501612 116.508 0.751576 90.2606 1.00118 67.6339C1.12597 56.3211 1.25067 45.9142 1.34417 38.3356C1.39091 34.5462 1.42986 31.464 1.45712 29.329L1.4844 27.2069C1.63589 27.3484 1.80818 27.5046 2.00205 27.6734C2.93982 28.4904 4.38204 29.6061 6.4165 30.8216C10.4865 33.2531 16.9199 36.0797 26.4152 37.7148C34.9309 39.1813 44.8182 40.3771 52.5719 41.206C56.4497 41.6206 59.7959 41.9436 62.1728 42.163C63.3613 42.2727 64.3075 42.3565 64.9567 42.4129Z" fill="#F4F4F4" stroke="#A2ABB8"/>
<rect x="72.5" y="42.5" width="262" height="124" fill="#F4F4F4" stroke="#A2ABB8"/>
</svg>
