<svg width="361" height="174" viewBox="0 0 361 174" fill="none" xmlns="http://www.w3.org/2000/svg">
<path d="M0.42 154.74C0.28 107.68 0.14 60.6197 0 13.5597C0.56 13.2097 1.55 12.5897 2.82 11.8697C7.81 9.0097 24.55 0.189702 65.78 0.0097016C69.81 -0.0102984 74.04 -0.0302996 79.9 0.2897C89.96 0.8397 133.01 3.1797 136.09 17.6497C136.2 18.1697 136.32 18.9897 136.23 20.0497L136.09 33.8897C210.82 34.1297 285.55 34.3597 360.28 34.5997L360.42 173.8C264.04 173.71 167.67 173.61 71.29 173.52C70.44 173.49 69.16 173.45 67.62 173.38C49.47 172.59 40.39 172.2 30.63 169.71C14.03 165.48 4.45 158.04 2.11 156.16C1.39 155.58 0.81 155.09 0.42 154.75V154.74Z" fill="#231F20"/>
<path d="M134.49 17.2297C134.43 25.6397 134.36 34.0497 134.3 42.4497C118.6 47.3897 91.2899 53.6997 57.6899 49.5997C33.5999 46.6597 14.4899 39.3797 1.59991 33.2197L1.40991 17.5997L134.49 17.2197V17.2297Z" fill="#C6C3C1"/>
<path d="M67.61 34.18C104.398 34.18 134.22 26.9763 134.22 18.09C134.22 9.20374 104.398 2 67.61 2C30.8223 2 1 9.20374 1 18.09C1 26.9763 30.8223 34.18 67.61 34.18Z" fill="#F3EADE"/>
<path d="M66.7701 22.4198C77.9207 22.4198 86.9601 20.1991 86.9601 17.4598C86.9601 14.7204 77.9207 12.4998 66.7701 12.4998C55.6194 12.4998 46.5801 14.7204 46.5801 17.4598C46.5801 20.1991 55.6194 22.4198 66.7701 22.4198Z" fill="#BCA28B"/>
<path d="M54.7101 13.4897L66.9901 22.3797C63.5001 22.3297 60.3401 22.1397 57.5501 21.8897C57.5501 21.8897 53.1801 21.4997 48.9901 19.8197C48.9001 19.7797 48.5001 19.6198 48.0501 19.2998C47.6101 18.9898 46.5201 18.2297 46.5401 17.3197C46.5601 16.6297 47.2101 16.1597 47.9501 15.6297C48.6401 15.1297 49.4501 14.7197 51.0101 14.2697C51.9201 13.9997 53.1701 13.6997 54.7001 13.4897H54.7101Z" fill="#AD917B"/>
<path d="M1.01917 18C1.02867 18.1504 1.05719 18.381 1.10472 18.6617C1.29485 19.6242 1.89375 21.2083 4.95475 23.4742C5.41105 23.8151 6.72291 24.7575 9.38466 26.071C11.6852 27.2039 13.5199 27.8957 14.3469 28.1965C17.9688 29.5199 21.9234 30.713 24.4615 31.3146C41.4587 35.335 58.4558 35.2749 58.4558 35.2749C71.5459 35.5355 86.7464 35.6158 103.724 35.2749C182.816 35.3651 261.908 35.4654 341 35.5556V172C250.729 171.91 160.448 171.81 70.177 171.719C64.8725 171.739 57.3911 171.609 48.4362 170.867C40.4605 170.215 36.4774 169.885 30.9923 168.601C22.6737 166.655 1.10482 160.871 1.01917 138.313C0.933515 115.754 1.17124 46.9273 1.01917 18Z" fill="white" stroke="#D1D3D4" stroke-width="0.25" stroke-miterlimit="10"/>
<path d="M1 26C1 26 7.62784 33.9722 26.5 37.2221C43.5 40.1496 66 40.9477 66 40.9477V165.522C66 165.522 40.2038 168.766 19 158.348C6 151.96 0.998943 143.108 1 133.606C1.00322 104.615 1 26 1 26Z" fill="#D9D9D9"/>
<rect x="72" y="42" width="259" height="124" fill="#D9D9D9"/>
</svg>
