<svg width="76" height="209" viewBox="0 0 76 209" fill="none">
<path d="M0.899902 1.60016C0.999902 1.90016 1.2999 2.40015 1.5999 3.00015C6.9999 12.1002 18.6999 14.6002 45.4999 19.0002C62.2999 21.8002 72.2999 23.2002 74.4999 29.5002C74.8999 30.8002 74.8999 31.9002 74.8999 32.6002C75.0999 82.1002 75.2999 131.6 75.4999 181.1C69.1999 182.9 54.6999 186.3 37.0999 181.7C17.4999 176.5 5.7999 164.5 1.4999 159.7C1.1999 107 0.999902 54.3002 0.899902 1.60016Z" fill="white" stroke="#D1D3D4" stroke-width="0.25" stroke-miterlimit="10"/>
<path d="M74.8002 32.1001C74.5002 34.5001 73.8002 37.9001 71.4002 41.1001C68.4002 45.1001 63.9002 47.4001 47.1002 50.7001C33.9002 53.3001 27.3002 54.8001 23.4002 55.2001C15.2002 56.2001 7.0002 56.5001 5.1002 61.1001C4.7002 62.1001 4.7002 63.0001 4.7002 63.7001C5.0002 111.9 5.2002 160.1 5.4002 208.3C8.3002 205.7 12.8002 202 19.0002 198.7C21.6002 197.3 28.5002 193.8 46.7002 190.2C53.8002 188.8 63.4002 187.2 74.9002 186.2C74.8002 134.9 74.8002 83.5001 74.8002 32.1001Z" fill="#E6E7E8"/>
</svg>
